<?xml version="1.0" standalone="no"?>
<!DOCTYPE svg PUBLIC "-//W3C//DTD SVG 20010904//EN"
 "http://www.w3.org/TR/2001/REC-SVG-20010904/DTD/svg10.dtd">
<svg version="1.0" xmlns="http://www.w3.org/2000/svg"
 width="504.000000pt" height="503.000000pt" viewBox="0 0 504.000000 503.000000"
 preserveAspectRatio="xMidYMid meet">

<g transform="translate(0.000000,503.000000) scale(0.100000,-0.100000)"
fill="#000000" stroke="none">
<path d="M2760 4521 c-89 -13 -182 -41 -209 -62 l-24 -20 -28 27 c-20 20 -42
28 -78 32 -46 4 -52 2 -80 -28 -47 -51 -67 -96 -52 -113 20 -25 47 -8 71 43
13 27 28 51 35 54 7 2 31 -4 54 -15 50 -22 48 -30 -32 -110 -84 -83 -235 -154
-422 -197 -49 -12 -133 -31 -185 -43 -52 -12 -131 -35 -175 -52 -75 -28 -87
-37 -190 -142 -116 -117 -162 -183 -196 -281 -30 -85 -24 -257 14 -362 50
-143 133 -255 242 -328 55 -37 240 -94 371 -115 44 -6 99 -22 124 -34 25 -13
79 -37 121 -54 l76 -32 6 -61 c6 -64 27 -104 66 -124 56 -28 109 24 96 94 -6
33 -5 35 11 21 20 -16 49 -78 59 -126 5 -26 3 -33 -9 -33 -21 0 -38 -44 -30
-76 5 -21 1 -27 -42 -45 l-48 -22 -130 27 c-72 14 -177 28 -233 32 -116 7
-116 7 -46 88 78 92 6 216 -125 216 -63 0 -108 -22 -117 -58 l-6 -25 -15 21
c-28 40 -114 48 -175 16 -58 -30 -95 -132 -65 -178 20 -31 20 -36 2 -36 -8 0
-26 -14 -40 -31 -36 -43 -37 -119 -1 -154 13 -14 35 -25 49 -25 24 0 24 -2 20
-52 -9 -91 42 -155 129 -165 46 -6 47 -5 101 58 29 35 188 36 378 2 l88 -15
-20 -28 c-52 -73 -98 -238 -107 -382 l-6 -106 37 -74 c21 -40 49 -85 63 -100
15 -16 22 -31 18 -39 -5 -7 -4 -10 2 -6 9 6 56 -39 121 -116 28 -33 32 -45 32
-95 0 -31 -4 -63 -9 -71 -7 -11 -56 -18 -208 -27 -213 -13 -250 -22 -416 -106
-117 -58 -176 -140 -160 -221 11 -54 96 -100 181 -96 20 1 68 -4 106 -10 44
-8 113 -9 192 -5 119 7 126 6 182 -19 151 -68 284 -77 782 -53 374 18 387 20
483 47 82 24 107 46 107 94 0 47 -19 81 -72 131 -59 56 -105 82 -187 104 -167
47 -223 91 -242 193 -14 80 1 128 63 196 27 31 61 77 76 103 15 27 30 47 33
45 4 -1 25 -25 48 -54 28 -36 52 -55 78 -63 59 -18 310 -25 362 -10 55 15 111
67 111 104 0 24 -3 26 -42 26 -35 0 -46 6 -80 42 -21 23 -38 45 -38 49 0 4
-12 11 -27 17 -20 6 -52 4 -113 -9 -142 -31 -200 -34 -237 -10 -29 18 -33 26
-33 66 0 59 -26 124 -84 213 -51 77 -65 128 -52 196 l7 36 152 0 c84 0 169 -3
190 -6 36 -6 37 -8 37 -48 0 -23 7 -52 16 -65 33 -47 122 -65 188 -37 49 20
66 51 66 117 l0 56 45 0 c34 0 52 6 70 23 35 33 52 92 36 126 -6 15 -10 27 -9
28 2 1 16 7 31 14 15 6 30 19 33 27 10 25 -29 128 -62 165 -30 32 -37 35 -91
35 -32 0 -64 -2 -72 -5 -9 -3 -17 7 -23 30 -24 87 -79 124 -174 118 -50 -3
-69 -9 -89 -28 -35 -33 -51 -89 -37 -129 10 -29 9 -31 -16 -37 -15 -4 -78 -22
-140 -40 -154 -46 -241 -59 -289 -43 -35 11 -36 13 -15 20 12 5 27 20 34 34
15 34 -5 55 -61 62 l-41 6 0 59 c0 72 16 113 67 168 47 54 111 82 267 121 67
17 136 39 154 50 l33 19 15 -35 c36 -87 122 -145 215 -145 60 0 101 16 169 67
140 104 222 301 205 493 -25 288 -161 669 -343 964 -96 155 -150 199 -319 260
-199 70 -403 99 -553 77z m320 -57 c144 -30 317 -114 426 -207 82 -71 192
-265 283 -497 111 -284 156 -569 116 -725 -33 -126 -117 -235 -220 -286 -69
-34 -106 -34 -167 -3 -95 49 -168 325 -139 525 13 94 39 165 91 252 37 60 54
127 30 112 -17 -11 -110 -153 -129 -199 -39 -90 -54 -192 -48 -321 3 -66 11
-142 18 -168 10 -43 10 -49 -7 -63 -30 -23 -60 -34 -197 -70 -141 -37 -232
-80 -277 -130 -30 -35 -63 -125 -75 -208 l-8 -48 -121 7 c-66 3 -128 8 -136
11 -11 3 -20 26 -27 70 -13 72 -46 132 -84 151 -13 7 -79 33 -147 59 -116 45
-158 69 -75 44 21 -7 110 -14 199 -17 225 -8 368 22 436 91 40 41 108 185 108
229 0 20 -4 37 -9 37 -4 0 -27 -46 -50 -102 -24 -57 -52 -113 -63 -125 -52
-56 -185 -86 -378 -87 -227 -1 -373 45 -545 169 -99 71 -105 74 -105 42 0 -16
16 -39 51 -72 l50 -47 -53 7 c-223 27 -349 100 -444 257 -65 107 -79 158 -78
293 0 100 4 129 23 177 45 114 231 312 346 369 34 16 99 37 146 45 128 24 323
78 434 120 98 37 102 40 220 155 129 126 172 153 275 169 71 11 234 3 330 -16z
m-1241 -1849 c42 -36 57 -85 37 -124 -9 -16 -24 -36 -34 -43 -46 -33 -66 -108
-28 -108 79 0 288 -25 331 -40 127 -44 215 -38 276 17 l39 35 161 -9 c142 -9
163 -12 187 -32 117 -95 268 -89 536 20 63 26 72 27 87 13 9 -8 36 -16 60 -17
37 -2 44 1 44 17 0 13 -15 24 -52 38 -57 21 -69 39 -58 89 12 56 95 86 155 56
33 -16 60 -72 60 -125 0 -52 15 -61 61 -33 64 39 119 19 158 -56 26 -51 10
-73 -54 -73 -76 0 -88 -34 -22 -65 48 -23 56 -43 31 -79 -13 -21 -24 -26 -59
-26 -27 0 -51 7 -68 20 -50 40 -70 14 -38 -49 25 -48 27 -113 5 -135 -21 -22
-57 -29 -98 -22 -45 9 -60 29 -61 82 -1 24 -5 48 -11 54 -14 14 -274 32 -352
24 -105 -11 -108 -13 -115 -84 -10 -91 5 -140 76 -241 l62 -90 -2 -79 c-2
-101 -30 -167 -113 -260 -80 -91 -90 -111 -90 -195 0 -86 29 -154 87 -206 31
-28 69 -46 169 -79 71 -23 145 -51 165 -62 44 -24 69 -65 69 -111 0 -32 -3
-37 -42 -51 -102 -37 -139 -40 -715 -61 l-173 -7 0 22 c0 12 16 44 35 70 37
51 43 70 22 70 -29 0 -107 -105 -107 -143 0 -12 -13 -14 -67 -10 -100 7 -127
16 -131 40 -5 36 25 91 67 120 44 31 51 43 23 43 -52 0 -132 -92 -132 -150 0
-11 -5 -20 -11 -20 -19 0 -123 59 -152 86 -39 36 -37 84 4 118 17 14 34 26 37
26 4 0 43 7 87 14 44 8 145 22 225 31 79 9 156 23 171 30 34 18 47 51 58 150
6 44 12 89 16 100 7 26 -9 50 -29 42 -12 -5 -16 -22 -17 -74 -1 -117 -9 -146
-49 -165 -51 -25 -160 -46 -301 -58 -154 -12 -185 -21 -237 -65 -49 -43 -61
-84 -39 -137 l15 -36 -74 -7 c-69 -6 -152 -1 -198 12 -26 7 -15 54 29 120 57
86 44 112 -20 42 -38 -43 -74 -111 -75 -141 0 -20 -19 -22 -71 -8 -112 31 -73
139 76 210 138 66 198 81 370 90 266 16 291 28 275 135 -12 85 -14 89 -108
200 -151 177 -179 238 -167 359 14 146 62 281 130 370 l33 44 -36 16 c-66 29
-174 47 -317 52 -169 6 -236 -6 -245 -46 -11 -46 -79 -38 -110 13 -28 46 -25
80 11 122 44 49 34 65 -35 58 -62 -6 -86 5 -86 41 0 27 30 56 87 85 23 11 44
25 47 30 3 5 -12 20 -34 35 -51 34 -55 73 -11 117 60 59 128 32 165 -66 28
-73 57 -56 70 39 3 27 13 60 21 73 21 32 74 31 114 -2z m462 -18 c-1 -4 -1
-14 -1 -22 0 -23 -16 -18 -28 10 -16 34 -15 36 9 27 11 -5 20 -11 20 -15z
m1297 -1179 c20 -22 49 -48 65 -58 25 -16 26 -18 11 -31 -21 -18 -184 -24
-287 -11 -83 11 -106 24 -139 79 l-17 29 67 1 c37 1 103 10 147 21 44 10 88
17 98 14 10 -2 34 -22 55 -44z"/>
<path d="M2688 4393 c-10 -2 -18 -12 -18 -20 0 -13 9 -15 58 -10 40 4 65 2 82
-8 34 -19 50 -18 50 3 0 32 -21 42 -89 41 -37 -1 -74 -3 -83 -6z"/>
<path d="M2583 3865 c17 -103 87 -190 123 -153 13 13 14 21 3 57 -15 52 -83
131 -111 131 -18 0 -20 -5 -15 -35z"/>
<path d="M2352 3868 c-16 -16 -15 -120 1 -142 17 -24 70 -18 75 8 7 35 -9 103
-29 125 -23 24 -30 26 -47 9z"/>
<path d="M3616 3657 c-10 -36 -28 -64 -55 -91 -30 -30 -47 -59 -66 -115 -32
-98 -55 -218 -55 -289 1 -120 51 -280 107 -343 42 -46 74 -50 140 -18 75 36
133 130 172 283 46 175 11 354 -116 600 -26 51 -35 9 -13 -62 10 -34 15 -60
10 -57 -4 3 -13 27 -20 54 -13 54 -41 91 -70 91 -14 0 -22 -13 -34 -53z m19
-212 c8 -58 3 -85 -15 -85 -12 0 -30 42 -30 70 0 27 18 70 29 70 5 0 13 -25
16 -55z m87 -18 c6 -30 0 -47 -17 -47 -13 0 -27 48 -18 62 9 16 31 7 35 -15z
m-168 -42 c3 -8 1 -15 -4 -15 -6 0 -10 7 -10 15 0 8 2 15 4 15 2 0 6 -7 10
-15z m226 -191 c0 -24 -14 -32 -25 -14 -9 14 4 52 16 45 5 -4 9 -17 9 -31z
m-63 -225 c-7 -54 -24 -71 -33 -35 -7 30 9 76 27 76 8 0 10 -14 6 -41z m-81
10 c11 -18 -13 -34 -31 -19 -8 7 -15 16 -15 21 0 13 38 11 46 -2z"/>
<path d="M1865 3555 c-44 -15 -85 -56 -85 -83 0 -54 67 -92 163 -92 120 0 197
65 151 128 -43 58 -140 78 -229 47z m25 -69 c0 -13 -39 -30 -48 -21 -8 7 20
35 34 35 8 0 14 -6 14 -14z"/>
</g>
</svg>
